<svg xmlns="http://www.w3.org/2000/svg" width="23.172" height="18.835" viewBox="0 0 23.172 18.835">
  <path id="twitter" d="M27.172,8.479a9.474,9.474,0,0,1-2.731.747A4.77,4.77,0,0,0,26.531,6.6a9.578,9.578,0,0,1-3.017,1.154A4.755,4.755,0,0,0,15.288,11a4.649,4.649,0,0,0,.124,1.082,13.476,13.476,0,0,1-9.8-4.967,4.756,4.756,0,0,0,1.471,6.347,4.727,4.727,0,0,1-2.154-.6v.06a4.752,4.752,0,0,0,3.813,4.662,4.732,4.732,0,0,1-1.252.17,4.634,4.634,0,0,1-.894-.087,4.762,4.762,0,0,0,4.439,3.3,9.535,9.535,0,0,1-5.9,2.033A9.425,9.425,0,0,1,4,22.943a13.518,13.518,0,0,0,20.815-11.39c0-.2-.008-.411-.015-.615A9.738,9.738,0,0,0,27.172,8.479Z" transform="translate(-4 -6.246)" fill="rgba(255,255,255,0.75)"/>
</svg>
